mastitorrents.com
  
http://mastitorrents.com/forums/index.php
  
http://thepiratebay.se/user/HDvideos/0/7

Dehraadun Diary (2013) - Hindi - CAM - Untouched

Format : MPEG-PS
File size : 626 MiB
Duration : 1h 35mn
Overall bit rate : 917 Kbps

Video
ID : 224 (0xE0)
Format : MPEG Video
Format version : Version 2
Format settings, BVOP : Yes
Format settings, Matrix : Custom
Format settings, GOP : Variable
Duration : 1h 35mn
Bit rate : 835 Kbps
Maximum bit rate : 1 150 Kbps
Width : 352 pixels
Height : 288 pixels
Display aspect ratio : 1.222
Frame rate : 25.000 fps
Standard : PAL
Color space : YUV
Bit depth : 8 bits
Scan type : Progressive
Compression mode : Lossy
Bits/(Pixel*Frame) : 0.329
Stream size : 570 MiB (91%)

Audio
ID : 192 (0xC0)
Format : MPEG Audio
Format version : Version 1
Format profile : Layer 2
Duration : 1h 35mn
Bit rate mode : Constant
Bit rate : 64.0 Kbps
Channel(s) : 2 channels
Sampling rate : 48.0 KHz
Compression mode : Lossy
Stream size : 43.7 MiB (7%)

Screens: 
http://i.imgur.com/pBNKK.jpg